<svg xmlns="http://www.w3.org/2000/svg" xmlns:xlink="http://www.w3.org/1999/xlink" width="106" zoomAndPan="magnify" viewBox="0 0 79.5 30.000001" height="40" preserveAspectRatio="xMidYMid meet" version="1.0"><defs><g/><clipPath id="794f4efd49"><path d="M 4.617188 2.902344 L 25.664062 2.902344 L 25.664062 26.128906 L 4.617188 26.128906 Z M 4.617188 2.902344 " clip-rule="nonzero"/></clipPath><clipPath id="d3e4b63df3"><path d="M 15 2.902344 L 25.664062 2.902344 L 25.664062 26.128906 L 15 26.128906 Z M 15 2.902344 " clip-rule="nonzero"/></clipPath><clipPath id="1740b99ff9"><rect x="0" width="6" y="0" height="23"/></clipPath></defs><g clip-path="url(#794f4efd49)"><path fill="#38b6ff" d="M 25.46875 6.964844 L 25.46875 15.707031 C 25.160156 23.523438 15.042969 26.132812 15.042969 26.132812 C 15.042969 26.132812 4.921875 23.523438 4.617188 15.707031 L 4.617188 6.964844 L 15.042969 2.90625 Z M 25.46875 6.964844 " fill-opacity="1" fill-rule="nonzero"/></g><g clip-path="url(#d3e4b63df3)"><path fill="#004aad" d="M 25.46875 6.964844 L 25.46875 15.707031 C 25.160156 23.523438 15.042969 26.132812 15.042969 26.132812 L 15.042969 2.90625 Z M 25.46875 6.964844 " fill-opacity="1" fill-rule="nonzero"/></g><path fill="#004aad" d="M 22.730469 8.949219 L 22.730469 15.394531 C 22.503906 21.160156 15.042969 23.082031 15.042969 23.082031 C 15.042969 23.082031 7.582031 21.160156 7.359375 15.394531 L 7.359375 8.949219 L 15.042969 5.957031 Z M 22.730469 8.949219 " fill-opacity="1" fill-rule="nonzero"/><path fill="#38b6ff" d="M 22.730469 8.949219 L 22.730469 15.394531 C 22.503906 21.160156 15.042969 23.082031 15.042969 23.082031 L 15.042969 5.957031 Z M 22.730469 8.949219 " fill-opacity="1" fill-rule="nonzero"/><g fill="#004aad" fill-opacity="1"><g transform="translate(12.321926, 15.939556)"><g><path d="M 7.296875 -3.890625 C 7.296875 -3.035156 7.128906 -2.316406 6.796875 -1.734375 C 6.472656 -1.160156 6 -0.726562 5.375 -0.4375 C 4.75 -0.144531 4 0 3.125 0 L 0.96875 0 L 0.96875 -7.640625 L 3.359375 -7.640625 C 4.160156 -7.640625 4.851562 -7.492188 5.4375 -7.203125 C 6.03125 -6.921875 6.488281 -6.503906 6.8125 -5.953125 C 7.132812 -5.398438 7.296875 -4.710938 7.296875 -3.890625 Z M 5.625 -3.859375 C 5.625 -4.421875 5.539062 -4.882812 5.375 -5.25 C 5.207031 -5.613281 4.960938 -5.878906 4.640625 -6.046875 C 4.316406 -6.222656 3.914062 -6.3125 3.4375 -6.3125 L 2.578125 -6.3125 L 2.578125 -1.34375 L 3.28125 -1.34375 C 4.070312 -1.34375 4.660156 -1.550781 5.046875 -1.96875 C 5.429688 -2.394531 5.625 -3.023438 5.625 -3.859375 Z M 5.625 -3.859375 "/></g></g></g><g transform="matrix(1, 0, 0, 1, 11, 3)"><g clip-path="url(#1740b99ff9)"><g fill="#38b6ff" fill-opacity="1"><g transform="translate(0.379696, 17.061103)"><g><path d="M 3.71875 0 L 1.484375 0 L 1.484375 -11.359375 L 3.71875 -11.359375 Z M 3.71875 0 "/></g></g></g></g></g><g fill="#38b6ff" fill-opacity="1"><g transform="translate(26.17137, 18.145163)"><g><path d="M 4.171875 -7.5625 C 4.835938 -7.5625 5.414062 -7.445312 5.90625 -7.21875 C 6.40625 -7 6.785156 -6.679688 7.046875 -6.265625 C 7.316406 -5.859375 7.453125 -5.375 7.453125 -4.8125 C 7.453125 -4.257812 7.316406 -3.773438 7.046875 -3.359375 C 6.785156 -2.953125 6.40625 -2.632812 5.90625 -2.40625 C 5.414062 -2.1875 4.835938 -2.078125 4.171875 -2.078125 L 2.640625 -2.078125 L 2.640625 0 L 0.890625 0 L 0.890625 -7.5625 Z M 4.078125 -3.515625 C 4.597656 -3.515625 4.992188 -3.625 5.265625 -3.84375 C 5.535156 -4.070312 5.671875 -4.394531 5.671875 -4.8125 C 5.671875 -5.238281 5.535156 -5.5625 5.265625 -5.78125 C 4.992188 -6.007812 4.597656 -6.125 4.078125 -6.125 L 2.640625 -6.125 L 2.640625 -3.515625 Z M 4.078125 -3.515625 "/></g></g></g><g fill="#38b6ff" fill-opacity="1"><g transform="translate(33.94732, 18.145163)"><g><path d="M 6.46875 -2.875 C 6.46875 -2.851562 6.457031 -2.703125 6.4375 -2.421875 L 2.046875 -2.421875 C 2.117188 -2.066406 2.300781 -1.785156 2.59375 -1.578125 C 2.894531 -1.367188 3.265625 -1.265625 3.703125 -1.265625 C 4.003906 -1.265625 4.269531 -1.304688 4.5 -1.390625 C 4.738281 -1.484375 4.957031 -1.628906 5.15625 -1.828125 L 6.0625 -0.859375 C 5.507812 -0.222656 4.707031 0.09375 3.65625 0.09375 C 3 0.09375 2.421875 -0.0351562 1.921875 -0.296875 C 1.421875 -0.554688 1.03125 -0.910156 0.75 -1.359375 C 0.476562 -1.816406 0.34375 -2.332031 0.34375 -2.90625 C 0.34375 -3.46875 0.476562 -3.976562 0.75 -4.4375 C 1.019531 -4.894531 1.390625 -5.25 1.859375 -5.5 C 2.328125 -5.757812 2.851562 -5.890625 3.4375 -5.890625 C 4.007812 -5.890625 4.523438 -5.765625 4.984375 -5.515625 C 5.441406 -5.273438 5.800781 -4.925781 6.0625 -4.46875 C 6.332031 -4.019531 6.46875 -3.488281 6.46875 -2.875 Z M 3.453125 -4.625 C 3.066406 -4.625 2.742188 -4.515625 2.484375 -4.296875 C 2.234375 -4.078125 2.078125 -3.78125 2.015625 -3.40625 L 4.875 -3.40625 C 4.820312 -3.78125 4.664062 -4.078125 4.40625 -4.296875 C 4.144531 -4.515625 3.828125 -4.625 3.453125 -4.625 Z M 3.453125 -4.625 "/></g></g></g><g fill="#38b6ff" fill-opacity="1"><g transform="translate(40.752708, 18.145163)"><g><path d="M 4.53125 -0.28125 C 4.363281 -0.15625 4.15625 -0.0625 3.90625 0 C 3.664062 0.0625 3.414062 0.09375 3.15625 0.09375 C 2.457031 0.09375 1.921875 -0.0820312 1.546875 -0.4375 C 1.171875 -0.789062 0.984375 -1.3125 0.984375 -2 L 0.984375 -4.390625 L 0.09375 -4.390625 L 0.09375 -5.671875 L 0.984375 -5.671875 L 0.984375 -7.09375 L 2.671875 -7.09375 L 2.671875 -5.671875 L 4.109375 -5.671875 L 4.109375 -4.390625 L 2.671875 -4.390625 L 2.671875 -2.015625 C 2.671875 -1.773438 2.734375 -1.585938 2.859375 -1.453125 C 2.984375 -1.316406 3.160156 -1.25 3.390625 -1.25 C 3.660156 -1.25 3.890625 -1.320312 4.078125 -1.46875 Z M 4.53125 -0.28125 "/></g></g></g><g fill="#38b6ff" fill-opacity="1"><g transform="translate(45.444213, 18.145163)"><g><path d="M 3.125 -5.890625 C 4.019531 -5.890625 4.707031 -5.675781 5.1875 -5.25 C 5.675781 -4.820312 5.921875 -4.175781 5.921875 -3.3125 L 5.921875 0 L 4.34375 0 L 4.34375 -0.71875 C 4.019531 -0.175781 3.425781 0.09375 2.5625 0.09375 C 2.125 0.09375 1.738281 0.0195312 1.40625 -0.125 C 1.082031 -0.28125 0.832031 -0.492188 0.65625 -0.765625 C 0.488281 -1.035156 0.40625 -1.335938 0.40625 -1.671875 C 0.40625 -2.210938 0.609375 -2.632812 1.015625 -2.9375 C 1.421875 -3.25 2.046875 -3.40625 2.890625 -3.40625 L 4.234375 -3.40625 C 4.234375 -3.78125 4.117188 -4.066406 3.890625 -4.265625 C 3.671875 -4.460938 3.335938 -4.5625 2.890625 -4.5625 C 2.578125 -4.5625 2.269531 -4.507812 1.96875 -4.40625 C 1.675781 -4.3125 1.425781 -4.179688 1.21875 -4.015625 L 0.609375 -5.1875 C 0.929688 -5.414062 1.3125 -5.585938 1.75 -5.703125 C 2.195312 -5.828125 2.65625 -5.890625 3.125 -5.890625 Z M 2.984375 -1.046875 C 3.273438 -1.046875 3.53125 -1.113281 3.75 -1.25 C 3.976562 -1.382812 4.140625 -1.578125 4.234375 -1.828125 L 4.234375 -2.421875 L 3.078125 -2.421875 C 2.390625 -2.421875 2.046875 -2.195312 2.046875 -1.75 C 2.046875 -1.53125 2.128906 -1.359375 2.296875 -1.234375 C 2.460938 -1.109375 2.691406 -1.046875 2.984375 -1.046875 Z M 2.984375 -1.046875 "/></g></g></g><g fill="#38b6ff" fill-opacity="1"><g transform="translate(51.99068, 18.145163)"><g><path d="M 10.109375 -5.8125 L 8 0 L 6.375 0 L 5.078125 -3.609375 L 3.71875 0 L 2.109375 0 L 0.015625 -5.8125 L 1.59375 -5.8125 L 2.96875 -1.875 L 4.390625 -5.8125 L 5.8125 -5.8125 L 7.203125 -1.875 L 8.609375 -5.8125 Z M 10.109375 -5.8125 "/></g></g></g><g fill="#38b6ff" fill-opacity="1"><g transform="translate(61.902031, 18.145163)"><g><path d="M 3.125 -5.890625 C 4.019531 -5.890625 4.707031 -5.675781 5.1875 -5.25 C 5.675781 -4.820312 5.921875 -4.175781 5.921875 -3.3125 L 5.921875 0 L 4.34375 0 L 4.34375 -0.71875 C 4.019531 -0.175781 3.425781 0.09375 2.5625 0.09375 C 2.125 0.09375 1.738281 0.0195312 1.40625 -0.125 C 1.082031 -0.28125 0.832031 -0.492188 0.65625 -0.765625 C 0.488281 -1.035156 0.40625 -1.335938 0.40625 -1.671875 C 0.40625 -2.210938 0.609375 -2.632812 1.015625 -2.9375 C 1.421875 -3.25 2.046875 -3.40625 2.890625 -3.40625 L 4.234375 -3.40625 C 4.234375 -3.78125 4.117188 -4.066406 3.890625 -4.265625 C 3.671875 -4.460938 3.335938 -4.5625 2.890625 -4.5625 C 2.578125 -4.5625 2.269531 -4.507812 1.96875 -4.40625 C 1.675781 -4.3125 1.425781 -4.179688 1.21875 -4.015625 L 0.609375 -5.1875 C 0.929688 -5.414062 1.3125 -5.585938 1.75 -5.703125 C 2.195312 -5.828125 2.65625 -5.890625 3.125 -5.890625 Z M 2.984375 -1.046875 C 3.273438 -1.046875 3.53125 -1.113281 3.75 -1.25 C 3.976562 -1.382812 4.140625 -1.578125 4.234375 -1.828125 L 4.234375 -2.421875 L 3.078125 -2.421875 C 2.390625 -2.421875 2.046875 -2.195312 2.046875 -1.75 C 2.046875 -1.53125 2.128906 -1.359375 2.296875 -1.234375 C 2.460938 -1.109375 2.691406 -1.046875 2.984375 -1.046875 Z M 2.984375 -1.046875 "/></g></g></g><g fill="#38b6ff" fill-opacity="1"><g transform="translate(68.556424, 18.145163)"><g><path d="M 0.78125 -8.015625 L 2.46875 -8.015625 L 2.46875 0 L 0.78125 0 Z M 0.78125 -8.015625 "/></g></g></g><g fill="#38b6ff" fill-opacity="1"><g transform="translate(71.802729, 18.145163)"><g><path d="M 0.78125 -8.015625 L 2.46875 -8.015625 L 2.46875 0 L 0.78125 0 Z M 0.78125 -8.015625 "/></g></g></g></svg>