<svg xmlns="http://www.w3.org/2000/svg" xmlns:xlink="http://www.w3.org/1999/xlink" width="77" zoomAndPan="magnify" viewBox="0 0 57.75 30.000001" height="40" preserveAspectRatio="xMidYMid meet" version="1.0"><defs><g/><clipPath id="490d75cd30"><path d="M 3.714844 2.902344 L 24.761719 2.902344 L 24.761719 26.128906 L 3.714844 26.128906 Z M 3.714844 2.902344 " clip-rule="nonzero"/></clipPath><clipPath id="db0cd2430f"><path d="M 14 2.902344 L 24.761719 2.902344 L 24.761719 26.128906 L 14 26.128906 Z M 14 2.902344 " clip-rule="nonzero"/></clipPath><clipPath id="b98b49e559"><rect x="0" width="6" y="0" height="23"/></clipPath><clipPath id="8113aceec9"><path d="M 25 9 L 56.699219 9 L 56.699219 19 L 25 19 Z M 25 9 " clip-rule="nonzero"/></clipPath><clipPath id="7d08e38118"><path d="M 0.199219 2 L 6 2 L 6 8 L 0.199219 8 Z M 0.199219 2 " clip-rule="nonzero"/></clipPath><clipPath id="b2e7279909"><path d="M 30 2 L 31.699219 2 L 31.699219 8 L 30 8 Z M 30 2 " clip-rule="nonzero"/></clipPath><clipPath id="1785128167"><rect x="0" width="32" y="0" height="10"/></clipPath></defs><g clip-path="url(#490d75cd30)"><path fill="#38b6ff" d="M 24.566406 6.964844 L 24.566406 15.707031 C 24.257812 23.523438 14.140625 26.132812 14.140625 26.132812 C 14.140625 26.132812 4.019531 23.523438 3.71875 15.707031 L 3.71875 6.964844 L 14.140625 2.90625 Z M 24.566406 6.964844 " fill-opacity="1" fill-rule="nonzero"/></g><g clip-path="url(#db0cd2430f)"><path fill="#004aad" d="M 24.566406 6.964844 L 24.566406 15.707031 C 24.257812 23.523438 14.140625 26.132812 14.140625 26.132812 L 14.140625 2.90625 Z M 24.566406 6.964844 " fill-opacity="1" fill-rule="nonzero"/></g><path fill="#004aad" d="M 21.828125 8.949219 L 21.828125 15.394531 C 21.601562 21.160156 14.140625 23.082031 14.140625 23.082031 C 14.140625 23.082031 6.679688 21.160156 6.457031 15.394531 L 6.457031 8.949219 L 14.140625 5.957031 Z M 21.828125 8.949219 " fill-opacity="1" fill-rule="nonzero"/><path fill="#38b6ff" d="M 21.828125 8.949219 L 21.828125 15.394531 C 21.601562 21.160156 14.140625 23.082031 14.140625 23.082031 L 14.140625 5.957031 Z M 21.828125 8.949219 " fill-opacity="1" fill-rule="nonzero"/><g fill="#ffffff" fill-opacity="1"><g transform="translate(11.420016, 15.939556)"><g><path d="M 7.296875 -3.890625 C 7.296875 -3.035156 7.128906 -2.316406 6.796875 -1.734375 C 6.472656 -1.160156 6 -0.726562 5.375 -0.4375 C 4.75 -0.144531 4 0 3.125 0 L 0.96875 0 L 0.96875 -7.640625 L 3.359375 -7.640625 C 4.160156 -7.640625 4.851562 -7.492188 5.4375 -7.203125 C 6.03125 -6.921875 6.488281 -6.503906 6.8125 -5.953125 C 7.132812 -5.398438 7.296875 -4.710938 7.296875 -3.890625 Z M 5.625 -3.859375 C 5.625 -4.421875 5.539062 -4.882812 5.375 -5.25 C 5.207031 -5.613281 4.960938 -5.878906 4.640625 -6.046875 C 4.316406 -6.222656 3.914062 -6.3125 3.4375 -6.3125 L 2.578125 -6.3125 L 2.578125 -1.34375 L 3.28125 -1.34375 C 4.070312 -1.34375 4.660156 -1.550781 5.046875 -1.96875 C 5.429688 -2.394531 5.625 -3.023438 5.625 -3.859375 Z M 5.625 -3.859375 "/></g></g></g><g transform="matrix(1, 0, 0, 1, 10, 3)"><g clip-path="url(#b98b49e559)"><g fill="#ffffff" fill-opacity="1"><g transform="translate(0.477785, 17.061103)"><g><path d="M 3.71875 0 L 1.484375 0 L 1.484375 -11.359375 L 3.71875 -11.359375 Z M 3.71875 0 "/></g></g></g></g></g><g clip-path="url(#8113aceec9)"><g transform="matrix(1, 0, 0, 1, 25, 9)"><g clip-path="url(#1785128167)"><g clip-path="url(#7d08e38118)"><g fill="#ffffff" fill-opacity="1"><g transform="translate(0.309612, 7.247549)"><g><path d="M 2.671875 -4.84375 C 3.097656 -4.84375 3.46875 -4.769531 3.78125 -4.625 C 4.101562 -4.488281 4.347656 -4.285156 4.515625 -4.015625 C 4.691406 -3.753906 4.78125 -3.445312 4.78125 -3.09375 C 4.78125 -2.726562 4.691406 -2.414062 4.515625 -2.15625 C 4.347656 -1.894531 4.101562 -1.691406 3.78125 -1.546875 C 3.46875 -1.398438 3.097656 -1.328125 2.671875 -1.328125 L 1.703125 -1.328125 L 1.703125 0 L 0.578125 0 L 0.578125 -4.84375 Z M 2.609375 -2.25 C 2.941406 -2.25 3.195312 -2.320312 3.375 -2.46875 C 3.550781 -2.613281 3.640625 -2.820312 3.640625 -3.09375 C 3.640625 -3.363281 3.550781 -3.570312 3.375 -3.71875 C 3.195312 -3.863281 2.941406 -3.9375 2.609375 -3.9375 L 1.703125 -3.9375 L 1.703125 -2.25 Z M 2.609375 -2.25 "/></g></g></g></g><g fill="#ffffff" fill-opacity="1"><g transform="translate(5.303053, 7.247549)"><g><path d="M 4.140625 -1.84375 C 4.140625 -1.832031 4.132812 -1.738281 4.125 -1.5625 L 1.3125 -1.5625 C 1.363281 -1.332031 1.484375 -1.148438 1.671875 -1.015625 C 1.859375 -0.878906 2.09375 -0.8125 2.375 -0.8125 C 2.570312 -0.8125 2.742188 -0.835938 2.890625 -0.890625 C 3.035156 -0.953125 3.175781 -1.046875 3.3125 -1.171875 L 3.890625 -0.546875 C 3.535156 -0.140625 3.019531 0.0625 2.34375 0.0625 C 1.925781 0.0625 1.554688 -0.0195312 1.234375 -0.1875 C 0.910156 -0.351562 0.660156 -0.582031 0.484375 -0.875 C 0.304688 -1.164062 0.21875 -1.492188 0.21875 -1.859375 C 0.21875 -2.222656 0.300781 -2.550781 0.46875 -2.84375 C 0.644531 -3.132812 0.882812 -3.363281 1.1875 -3.53125 C 1.488281 -3.695312 1.828125 -3.78125 2.203125 -3.78125 C 2.566406 -3.78125 2.894531 -3.703125 3.1875 -3.546875 C 3.488281 -3.390625 3.722656 -3.160156 3.890625 -2.859375 C 4.054688 -2.566406 4.140625 -2.226562 4.140625 -1.84375 Z M 2.21875 -2.96875 C 1.96875 -2.96875 1.757812 -2.894531 1.59375 -2.75 C 1.425781 -2.613281 1.328125 -2.425781 1.296875 -2.1875 L 3.125 -2.1875 C 3.09375 -2.425781 2.992188 -2.613281 2.828125 -2.75 C 2.660156 -2.894531 2.457031 -2.96875 2.21875 -2.96875 Z M 2.21875 -2.96875 "/></g></g></g><g fill="#ffffff" fill-opacity="1"><g transform="translate(9.673182, 7.247549)"><g><path d="M 2.90625 -0.1875 C 2.789062 -0.101562 2.65625 -0.0390625 2.5 0 C 2.351562 0.0390625 2.191406 0.0625 2.015625 0.0625 C 1.578125 0.0625 1.234375 -0.0507812 0.984375 -0.28125 C 0.742188 -0.507812 0.625 -0.84375 0.625 -1.28125 L 0.625 -2.8125 L 0.0625 -2.8125 L 0.0625 -3.640625 L 0.625 -3.640625 L 0.625 -4.546875 L 1.703125 -4.546875 L 1.703125 -3.640625 L 2.640625 -3.640625 L 2.640625 -2.8125 L 1.703125 -2.8125 L 1.703125 -1.296875 C 1.703125 -1.140625 1.742188 -1.015625 1.828125 -0.921875 C 1.910156 -0.835938 2.023438 -0.796875 2.171875 -0.796875 C 2.335938 -0.796875 2.484375 -0.84375 2.609375 -0.9375 Z M 2.90625 -0.1875 "/></g></g></g><g fill="#ffffff" fill-opacity="1"><g transform="translate(12.685868, 7.247549)"><g><path d="M 2 -3.78125 C 2.570312 -3.78125 3.015625 -3.640625 3.328125 -3.359375 C 3.640625 -3.085938 3.796875 -2.675781 3.796875 -2.125 L 3.796875 0 L 2.78125 0 L 2.78125 -0.46875 C 2.582031 -0.113281 2.203125 0.0625 1.640625 0.0625 C 1.359375 0.0625 1.113281 0.015625 0.90625 -0.078125 C 0.695312 -0.179688 0.535156 -0.316406 0.421875 -0.484375 C 0.304688 -0.660156 0.25 -0.859375 0.25 -1.078125 C 0.25 -1.421875 0.378906 -1.691406 0.640625 -1.890625 C 0.898438 -2.085938 1.304688 -2.1875 1.859375 -2.1875 L 2.71875 -2.1875 C 2.71875 -2.425781 2.644531 -2.609375 2.5 -2.734375 C 2.351562 -2.859375 2.140625 -2.921875 1.859375 -2.921875 C 1.660156 -2.921875 1.460938 -2.890625 1.265625 -2.828125 C 1.078125 -2.765625 0.914062 -2.679688 0.78125 -2.578125 L 0.390625 -3.328125 C 0.597656 -3.472656 0.84375 -3.582031 1.125 -3.65625 C 1.40625 -3.738281 1.695312 -3.78125 2 -3.78125 Z M 1.921875 -0.671875 C 2.097656 -0.671875 2.257812 -0.710938 2.40625 -0.796875 C 2.550781 -0.878906 2.65625 -1.003906 2.71875 -1.171875 L 2.71875 -1.5625 L 1.96875 -1.5625 C 1.53125 -1.5625 1.3125 -1.414062 1.3125 -1.125 C 1.3125 -0.976562 1.363281 -0.863281 1.46875 -0.78125 C 1.582031 -0.707031 1.734375 -0.671875 1.921875 -0.671875 Z M 1.921875 -0.671875 "/></g></g></g><g fill="#ffffff" fill-opacity="1"><g transform="translate(16.889785, 7.247549)"><g><path d="M 6.484375 -3.71875 L 5.125 0 L 4.09375 0 L 3.25 -2.3125 L 2.390625 0 L 1.34375 0 L 0 -3.71875 L 1.03125 -3.71875 L 1.90625 -1.203125 L 2.8125 -3.71875 L 3.734375 -3.71875 L 4.609375 -1.203125 L 5.53125 -3.71875 Z M 6.484375 -3.71875 "/></g></g></g><g fill="#ffffff" fill-opacity="1"><g transform="translate(23.254522, 7.247549)"><g><path d="M 2 -3.78125 C 2.570312 -3.78125 3.015625 -3.640625 3.328125 -3.359375 C 3.640625 -3.085938 3.796875 -2.675781 3.796875 -2.125 L 3.796875 0 L 2.78125 0 L 2.78125 -0.46875 C 2.582031 -0.113281 2.203125 0.0625 1.640625 0.0625 C 1.359375 0.0625 1.113281 0.015625 0.90625 -0.078125 C 0.695312 -0.179688 0.535156 -0.316406 0.421875 -0.484375 C 0.304688 -0.660156 0.25 -0.859375 0.25 -1.078125 C 0.25 -1.421875 0.378906 -1.691406 0.640625 -1.890625 C 0.898438 -2.085938 1.304688 -2.1875 1.859375 -2.1875 L 2.71875 -2.1875 C 2.71875 -2.425781 2.644531 -2.609375 2.5 -2.734375 C 2.351562 -2.859375 2.140625 -2.921875 1.859375 -2.921875 C 1.660156 -2.921875 1.460938 -2.890625 1.265625 -2.828125 C 1.078125 -2.765625 0.914062 -2.679688 0.78125 -2.578125 L 0.390625 -3.328125 C 0.597656 -3.472656 0.84375 -3.582031 1.125 -3.65625 C 1.40625 -3.738281 1.695312 -3.78125 2 -3.78125 Z M 1.921875 -0.671875 C 2.097656 -0.671875 2.257812 -0.710938 2.40625 -0.796875 C 2.550781 -0.878906 2.65625 -1.003906 2.71875 -1.171875 L 2.71875 -1.5625 L 1.96875 -1.5625 C 1.53125 -1.5625 1.3125 -1.414062 1.3125 -1.125 C 1.3125 -0.976562 1.363281 -0.863281 1.46875 -0.78125 C 1.582031 -0.707031 1.734375 -0.671875 1.921875 -0.671875 Z M 1.921875 -0.671875 "/></g></g></g><g fill="#ffffff" fill-opacity="1"><g transform="translate(27.527692, 7.247549)"><g><path d="M 0.5 -5.140625 L 1.578125 -5.140625 L 1.578125 0 L 0.5 0 Z M 0.5 -5.140625 "/></g></g></g><g clip-path="url(#b2e7279909)"><g fill="#ffffff" fill-opacity="1"><g transform="translate(29.612337, 7.247549)"><g><path d="M 0.5 -5.140625 L 1.578125 -5.140625 L 1.578125 0 L 0.5 0 Z M 0.5 -5.140625 "/></g></g></g></g></g></g></g></svg>