<svg xmlns="http://www.w3.org/2000/svg" xmlns:xlink="http://www.w3.org/1999/xlink" width="50" zoomAndPan="magnify" viewBox="0 0 37.5 37.499999" height="50" preserveAspectRatio="xMidYMid meet" version="1.0"><defs><g/><clipPath id="01eb3dda62"><path d="M 6.34375 1.875 L 30.769531 1.875 L 30.769531 29 L 6.34375 29 Z M 6.34375 1.875 " clip-rule="nonzero"/></clipPath><clipPath id="4f16f5e0ac"><path d="M 18 1.875 L 30.769531 1.875 L 30.769531 29 L 18 29 Z M 18 1.875 " clip-rule="nonzero"/></clipPath><clipPath id="1516b767b1"><rect x="0" width="13" y="0" height="23"/></clipPath></defs><g clip-path="url(#01eb3dda62)"><path fill="#38b6ff" d="M 30.652344 6.609375 L 30.652344 16.796875 C 30.292969 25.910156 18.496094 28.953125 18.496094 28.953125 C 18.496094 28.953125 6.703125 25.910156 6.347656 16.796875 L 6.347656 6.609375 L 18.496094 1.875 Z M 30.652344 6.609375 " fill-opacity="1" fill-rule="nonzero"/></g><g clip-path="url(#4f16f5e0ac)"><path fill="#004aad" d="M 30.652344 6.609375 L 30.652344 16.796875 C 30.292969 25.910156 18.496094 28.953125 18.496094 28.953125 L 18.496094 1.875 Z M 30.652344 6.609375 " fill-opacity="1" fill-rule="nonzero"/></g><path fill="#004aad" d="M 27.457031 8.921875 L 27.457031 16.433594 C 27.195312 23.152344 18.496094 25.394531 18.496094 25.394531 C 18.496094 25.394531 9.800781 23.152344 9.539062 16.433594 L 9.539062 8.921875 L 18.496094 5.433594 Z M 27.457031 8.921875 " fill-opacity="1" fill-rule="nonzero"/><path fill="#38b6ff" d="M 27.457031 8.921875 L 27.457031 16.433594 C 27.195312 23.152344 18.496094 25.394531 18.496094 25.394531 L 18.496094 5.433594 Z M 27.457031 8.921875 " fill-opacity="1" fill-rule="nonzero"/><g transform="matrix(1, 0, 0, 1, 14, 2)"><g clip-path="url(#1516b767b1)"><g fill="#004aad" fill-opacity="1"><g transform="translate(0.366261, 17.476024)"><g><path d="M 10.609375 -5.65625 C 10.609375 -4.40625 10.367188 -3.359375 9.890625 -2.515625 C 9.410156 -1.679688 8.71875 -1.050781 7.8125 -0.625 C 6.90625 -0.207031 5.816406 0 4.546875 0 L 1.390625 0 L 1.390625 -11.09375 L 4.875 -11.09375 C 6.039062 -11.09375 7.050781 -10.882812 7.90625 -10.46875 C 8.757812 -10.0625 9.421875 -9.453125 9.890625 -8.640625 C 10.367188 -7.835938 10.609375 -6.84375 10.609375 -5.65625 Z M 8.15625 -5.59375 C 8.15625 -6.414062 8.035156 -7.085938 7.796875 -7.609375 C 7.554688 -8.140625 7.203125 -8.53125 6.734375 -8.78125 C 6.265625 -9.039062 5.6875 -9.171875 5 -9.171875 L 3.75 -9.171875 L 3.75 -1.9375 L 4.765625 -1.9375 C 5.910156 -1.9375 6.757812 -2.242188 7.3125 -2.859375 C 7.875 -3.472656 8.15625 -4.382812 8.15625 -5.59375 Z M 8.15625 -5.59375 "/></g></g></g></g></g><g fill="#38b6ff" fill-opacity="1"><g transform="translate(13.544938, 22.812741)"><g><path d="M 4.96875 0 L 1.96875 0 L 1.96875 -15.171875 L 4.96875 -15.171875 Z M 4.96875 0 "/></g></g></g></svg>